<svg xmlns="http://www.w3.org/2000/svg" viewBox="0 0 171.57 175.81"><defs><style>.cls-1{fill:#d4e5f7;}.cls-2{fill:#278cf1;}.cls-3{opacity:0.45;}.cls-4{fill:#8fbfef;}.cls-5{fill:#0066cb;}.cls-6{fill:#fff;}</style></defs><g id="Layer_2" data-name="Layer 2"><g id="Layer_7" data-name="Layer 7"><path class="cls-1" d="M143.32,175.81a22.51,22.51,0,0,0,22.51-22.52V15.73a3.77,3.77,0,0,1,2.25-3.46C172.82,10.89,173.67,0,164.67,0H24.17C17.78,0,6.24,13.2.51,20.44a2.1,2.1,0,0,0,1,3.43l18.91.55c4,.22,7,4.79,7,9.17v119.7a22.51,22.51,0,0,0,22.51,22.52Z"/><path class="cls-2" d="M154.5,80.06H38.76a6.34,6.34,0,0,0-6.34,6.33v67.23a17.53,17.53,0,0,0,17.51,17.56h93.39a17.55,17.55,0,0,0,17.51-17.56V86.39A6.34,6.34,0,0,0,154.5,80.06Z"/><g class="cls-3"><path class="cls-4" d="M164.67,0c9,0,8.15,10.89,3.41,12.27a3.77,3.77,0,0,0-2.25,3.46V153.29a22.51,22.51,0,0,1-22.51,22.52"/><path class="cls-4" d="M165.83,153.29V15.73a3.77,3.77,0,0,1,2.25-3.46C172.82,10.89,173.67,0,164.67,0H131.45s18.49,33.79,4.48,136.51a41.29,41.29,0,0,1-36.19,35.41c-11.74,1.34-27.81,2.7-49.81,3.89h93.39A22.51,22.51,0,0,0,165.83,153.29Z"/></g><polygon class="cls-5" points="145.39 150.16 106.59 150.16 106.59 48.95 145.39 48.95 145.39 50.95 108.59 50.95 108.59 148.16 145.39 148.16 145.39 150.16"/><rect class="cls-5" x="107.59" y="74.06" width="37.81" height="2"/><rect class="cls-5" x="107.59" y="97.28" width="37.81" height="2"/><rect class="cls-5" x="107.59" y="122.11" width="37.81" height="2"/><path class="cls-6" d="M41.41,118.36a1.5,1.5,0,0,1-1.5-1.5V29a1.5,1.5,0,0,1,3,0v87.83A1.5,1.5,0,0,1,41.41,118.36Z"/><path class="cls-6" d="M41.41,159.16a1.5,1.5,0,0,1-1.5-1.5V127.27a1.5,1.5,0,0,1,3,0v30.39A1.5,1.5,0,0,1,41.41,159.16Z"/></g></g></svg>