<svg xmlns="http://www.w3.org/2000/svg" xmlns:xlink="http://www.w3.org/1999/xlink" viewBox="0 0 367.69 266.43"><defs><style>.cls-1,.cls-14,.cls-16,.cls-2,.cls-23{fill:none;}.cls-2{stroke:#b8dceb;stroke-width:4.23px;}.cls-14,.cls-16,.cls-2{stroke-linecap:round;}.cls-14,.cls-16,.cls-2,.cls-23{stroke-miterlimit:10;}.cls-3{fill:#b8dceb;}.cls-4{fill:#234f73;}.cls-5{fill:#2864ae;}.cls-6{clip-path:url(#clip-path);}.cls-7{fill:#0c5a95;}.cls-8{fill:#96d2f0;}.cls-9{clip-path:url(#clip-path-2);}.cls-10{fill:#84b1e0;}.cls-11{fill:#83bbe7;}.cls-12{clip-path:url(#clip-path-4);}.cls-13{fill:#0b5f9b;}.cls-14,.cls-16{stroke:#fff;}.cls-14{stroke-width:3px;}.cls-15{fill:#2f4752;}.cls-16{stroke-width:3.62px;}.cls-17{clip-path:url(#clip-path-5);}.cls-18{fill:#213d47;}.cls-19{fill:#0c2435;}.cls-20{fill:#0b2333;}.cls-21{fill:#d5edf9;}.cls-22{clip-path:url(#clip-path-6);}.cls-23{stroke:#90addb;stroke-width:2.54px;}</style><clipPath id="clip-path" transform="translate(5.41 8.23)"><path class="cls-1" d="M86,0h31.71V51.21s5.76,10.46,24.62,0C165.09,38.61,179.29,57,179.29,57s14.21,6.82,20.83-6.19V0h29.35V213.4H86Z"/></clipPath><clipPath id="clip-path-2" transform="translate(5.41 8.23)"><path class="cls-1" d="M60.46,83.59c1,1.78.55,3.88,0,5.45-1.77,5.31-5.54,9.47-8.21,13.22-3.15,4.43-8,11.17-7.54,19A75,75,0,0,0,46,129.78c.81,4.26,1.49,6.58,1.79,8,.92,4.35-.86,8.84-3.29,17.65-.11.39-.2.71-.25.91v69.5s2.63,16.58,20.52,8.12c0,0,8.32,6.66,16.28,0,0,0,8.51,5.69,16,0,0,0,3.1-2,4.17-7.29V156.36l-.82-3.56c-2.22-9.58-2.64-11.1-2.6-13.52,0-2,.34-1.37,1.58-7.66s1.9-9.63,1.74-12.61c-.21-4.1-1.89-7.24-5.22-13.36-1.86-3.4-7.72-11.3-9.89-15a7,7,0,0,1-.36-.68c-1.06-2.24-1.53-5.6,0-6.75.49-.39.71-.14,1.25-.58,1.11-.91,1.45-3,.64-3.92-.53-.59-1.13-.24-1.77-.95s-.89-1.72-.42-2.22a1.34,1.34,0,0,1,1.09-.24h-26a2.52,2.52,0,0,1,0,2.13,2.43,2.43,0,0,1-.18.24c-.59.66-1.39.52-1.86.78s-.8.92-.62,3a2,2,0,0,0,.82.89C59.07,82.69,60.09,83,60.46,83.59Z"/></clipPath><clipPath id="clip-path-4" transform="translate(5.41 8.23)"><path class="cls-1" d="M61.65,57.26H84.17s3.57.26,2.87,7.08V75.55H58.32V60.66A4.25,4.25,0,0,1,61.65,57.26Z"/></clipPath><clipPath id="clip-path-5" transform="translate(5.41 8.23)"><path class="cls-1" d="M289.35,171.81H135.14v52H289.35c10.57,0,19.13-11.63,19.13-26S299.92,171.81,289.35,171.81Z"/></clipPath><clipPath id="clip-path-6" transform="translate(5.41 8.23)"><path class="cls-1" d="M9.28,235.68s23.36-91.19,29.84-113.06c.43-1.46-1.27-4.45-3.23-5.65C27.42,111.8,0,99.12,0,99.12L2.13,94.5s27.68,12.81,36.4,18.13c3.54,2.14,6.67,7.39,5.47,11.43-6.46,21.78-29.79,112.88-29.79,112.88Z"/></clipPath></defs><g id="Layer_2" data-name="Layer 2"><g id="Layer_7" data-name="Layer 7"><line class="cls-2" x1="16.57" y1="244.39" x2="96.71" y2="244.63"/><path class="cls-3" d="M55,238.21,218,239.77c29.26,0,73-2.83,90.24-9.72,12.69-5.06,19.36-6.54,18-13.92-2.7-14.89-123.15-10.32-123.15-10.32l-133.42,2.4Z" transform="translate(5.41 8.23)"/><path class="cls-4" d="M117.75,0l3.33,1.68,2.59,49.79s3.08,10.2,21.94-.26C168.33,38.61,182.53,57,182.53,57s14.2,6.82,20.83-6.19L229.47,0l3.38,3.24s.26,91.34.54,122.93c.2,21.76,4.86,87.23,4.86,87.23h-149Z" transform="translate(5.41 8.23)"/><path class="cls-5" d="M86,0h31.71V51.21s5.76,10.46,24.62,0C165.09,38.61,179.29,57,179.29,57s14.21,6.82,20.83-6.19V0h29.35V213.4H86Z" transform="translate(5.41 8.23)"/><g class="cls-6"><path class="cls-7" d="M113.52,229.14C88.07,215.3,66.61,193.39,70.32,186c3.17-6.35,2.2-4.21,59.76-1.52,37.67,1.76,33.42-21.92,33.35-29.92-.07-8.47,20.66-33.56,23.16-44.87,2.67-12.07-13.73-20.42-9.72-30.24.94-2.3,6.28-5.77,16.92-12.6,10.34-6.64,10.23-6,11.52-7.2,14.22-13-12.68-53.15-2.16-64.43,7.66-8.22,34.74-.68,52.91,13.32,53.68,41.36,73.37,173,1.44,223.17C210.73,264.31,147,247.34,113.52,229.14Z" transform="translate(5.41 8.23)"/></g><path class="cls-8" d="M60.46,83.59c1,1.78.55,3.88,0,5.45-1.77,5.31-5.54,9.47-8.21,13.22-3.15,4.43-8,11.17-7.54,19A75,75,0,0,0,46,129.78c.81,4.26,1.49,6.58,1.79,8,.92,4.35-.86,8.84-3.29,17.65-.11.39-.2.71-.25.91v69.5s2.63,16.58,20.52,8.12c0,0,8.32,6.66,16.28,0,0,0,8.51,5.69,16,0,0,0,3.1-2,4.17-7.29V156.36l-.82-3.56c-2.22-9.58-2.64-11.1-2.6-13.52,0-2,.34-1.37,1.58-7.66s1.9-9.63,1.74-12.61c-.21-4.1-1.89-7.24-5.22-13.36-1.86-3.4-7.72-11.3-9.89-15a7,7,0,0,1-.36-.68c-1.06-2.24-1.53-5.6,0-6.75.49-.39.71-.14,1.25-.58,1.11-.91,1.45-3,.64-3.92-.53-.59-1.13-.24-1.77-.95s-.89-1.72-.42-2.22a1.34,1.34,0,0,1,1.09-.24h-26a2.52,2.52,0,0,1,0,2.13,2.43,2.43,0,0,1-.18.24c-.59.66-1.39.52-1.86.78s-.8.92-.62,3a2,2,0,0,0,.82.89C59.07,82.69,60.09,83,60.46,83.59Z" transform="translate(5.41 8.23)"/><g class="cls-9"><path class="cls-10" d="M59.86,69,57.73,77.3s5.77-.53,15.48-.53,14.52.53,14.52.53L87,69.87Z" transform="translate(5.41 8.23)"/></g><g class="cls-9"><path class="cls-11" d="M41.24,209.17S48,221.49,72.73,221.49s18.56-69,18.56-69A41.27,41.27,0,0,1,95.38,130c5.72-11-9.75-40-9.75-40l46,39.51-4.6,117L54.52,258.2,28,228.58Z" transform="translate(5.41 8.23)"/></g><path class="cls-5" d="M61.65,57.26H84.17s3.57.26,2.87,7.08V75.55H58.32V60.66A4.25,4.25,0,0,1,61.65,57.26Z" transform="translate(5.41 8.23)"/><g class="cls-12"><path class="cls-13" d="M78.26,76.82s6.58-.89,5.91-19.56,7.89,3.67,7.89,3.67l-.62,18.8Z" transform="translate(5.41 8.23)"/></g><path class="cls-14" d="M50.6,120.31s-.85,1.91.68,5.61" transform="translate(5.41 8.23)"/><path class="cls-14" d="M63.2,96.11s-8.1,9.77-10.78,17.24" transform="translate(5.41 8.23)"/><path class="cls-15" d="M289.35,171.81H135.14v52H289.35c10.57,0,19.13-11.63,19.13-26S299.92,171.81,289.35,171.81Z" transform="translate(5.41 8.23)"/><line class="cls-16" x1="161.05" y1="186.31" x2="181.87" y2="186.31"/><g class="cls-17"><path class="cls-18" d="M352.38,178.07s1.71,10.09-47,10.09H144.46l-37.41,10.05,9.34,15L329,220.4l33.28-32.24Z" transform="translate(5.41 8.23)"/><path class="cls-19" d="M351.41,199.05s1.79,10.09-49.39,10.09H133.13L93.84,219.19l9.81,15,223.22,7.17,34.93-32.24Z" transform="translate(5.41 8.23)"/></g><path class="cls-20" d="M135.14,222c-9.55,0-17.32-10.85-17.32-24.18s7.77-24.18,17.32-24.18,17.32,10.85,17.32,24.18S144.69,222,135.14,222Z" transform="translate(5.41 8.23)"/><path class="cls-15" d="M135.14,175.44c8.55,0,15.51,10,15.51,22.36s-7,22.37-15.51,22.37-15.51-10-15.51-22.37,7-22.36,15.51-22.36m0-3.63c-10.57,0-19.13,11.64-19.13,26s8.56,26,19.13,26,19.13-11.63,19.13-26-8.56-26-19.13-26Z" transform="translate(5.41 8.23)"/><line class="cls-16" x1="188.35" y1="187.31" x2="195.45" y2="187.31"/><path class="cls-21" d="M9.28,235.68s23.36-91.19,29.84-113.06c.43-1.46-1.27-4.45-3.23-5.65C27.42,111.8,0,99.12,0,99.12L2.13,94.5s27.68,12.81,36.4,18.13c3.54,2.14,6.67,7.39,5.47,11.43-6.46,21.78-29.79,112.88-29.79,112.88Z" transform="translate(5.41 8.23)"/><g class="cls-22"><line class="cls-23" x1="25.87" y1="246.69" x2="11.91" y2="220.57"/><line class="cls-23" x1="30.4" y1="224.55" x2="16.44" y2="198.43"/><line class="cls-23" x1="27.48" y1="234.88" x2="13.52" y2="208.76"/><line class="cls-23" x1="32.99" y1="213.89" x2="19.03" y2="187.78"/><line class="cls-23" x1="35.59" y1="203.31" x2="21.63" y2="177.2"/><line class="cls-23" x1="37.33" y1="193.87" x2="23.37" y2="167.75"/><line class="cls-23" x1="41.83" y1="174.97" x2="27.87" y2="148.86"/><line class="cls-23" x1="44.43" y1="165.1" x2="30.47" y2="138.98"/><line class="cls-23" x1="40.44" y1="187.61" x2="26.48" y2="161.5"/><line class="cls-23" x1="48.36" y1="157.44" x2="34.4" y2="131.33"/><line class="cls-23" x1="53.87" y1="152.81" x2="39.91" y2="126.7"/><line class="cls-23" x1="53.13" y1="138.73" x2="39.17" y2="112.61"/><line class="cls-23" x1="39.22" y1="126.01" x2="25.26" y2="99.9"/><line class="cls-23" x1="31.17" y1="123.92" x2="17.21" y2="97.81"/><line class="cls-23" x1="22.99" y1="121.54" x2="9.04" y2="95.42"/><line class="cls-23" x1="15.08" y1="121.42" x2="1.12" y2="95.3"/></g></g></g></svg>