<svg xmlns="http://www.w3.org/2000/svg" viewBox="0 0 814.26 177.75"><defs><style>.cls-1{fill:#fff;}.cls-2{fill:#0066cb;}</style></defs><g id="Layer_2" data-name="Layer 2"><g id="Opções_de_Logo" data-name="Opções de Logo"><path class="cls-1" d="M142.46,115.5c-3.77-25.87-27.15-35.71-61-43.25-26.5-6-36.75-10-36.75-22.5a15.59,15.59,0,0,1,2.08-7.85,17.1,17.1,0,0,1,4.11-4.81c4.35-3.6,10.86-5.84,19.06-5.84a69.25,69.25,0,0,1,25.63,5.17A91.63,91.63,0,0,1,119,50.25l19.25-26.5q-3.57-3.06-7.37-5.75A94.66,94.66,0,0,0,95.63,2.52,116.22,116.22,0,0,0,71,0,83.68,83.68,0,0,0,47.37,3.24C25.7,9.62,11,25,8.06,45.63A54.61,54.61,0,0,0,7.5,53.5c0,33.25,25.75,43.5,62,51.75,19.58,4.48,30.12,7.7,34.21,14.14a14.12,14.12,0,0,1,2,7.86c0,10.75-9.5,19.25-28,19.25C56,146.5,37.5,138,21.25,124L7.84,139.93,0,149.25c20,18.5,46.5,28.5,76.25,28.5,42,0,66.75-21.75,66.75-54.5A53,53,0,0,0,142.46,115.5Z"/><path class="cls-1" d="M214,36.25H160.5V3h144V36.25H251v138.5H214Z"/><path class="cls-1" d="M329.75,3h37V174.75h-37Z"/><path class="cls-1" d="M394.25,88.75C394.25,40.5,436.25,0,485.5,0a91.93,91.93,0,0,1,66.75,28.75l-26.75,24c-10-11.5-24.25-19.25-40-19.25-28.75,0-53.25,25.5-53.25,55.25,0,30,24.5,55.5,53.25,55.5,15.75,0,30-7.75,40-19.25l26.75,24a92.91,92.91,0,0,1-66.75,28.75C436.25,177.75,394.25,137,394.25,88.75Z"/><path class="cls-1" d="M564.5,88.75C564.5,40.5,606.5,0,655.75,0,705.5,0,747,40.5,747,88.75s-41.5,89-91.25,89C606.5,177.75,564.5,137,564.5,88.75Zm144.75,0c0-29.75-24.5-55.25-53.5-55.25C627,33.5,602.5,59,602.5,88.75c0,30,24.5,55.5,53.25,55.5C684.75,144.25,709.25,118.75,709.25,88.75Z"/><path class="cls-2" d="M775.73,125.18V52.57h26.63a11.9,11.9,0,0,1,11.9,11.9v48.81a11.9,11.9,0,0,1-11.9,11.9Z"/></g></g></svg>