<svg xmlns="http://www.w3.org/2000/svg" viewBox="0 0 360 360"><defs><style>.cls-1,.cls-2{fill:none;}.cls-2{stroke:#131a22;stroke-linecap:round;stroke-linejoin:round;stroke-width:13px;}</style></defs><g id="Layer_2" data-name="Layer 2"><g id="Layer_1-2" data-name="Layer 1"><path class="cls-1" d="M0,0V360H360V0Z"/><path class="cls-2" d="M307.12,274.12H290.5a42.07,42.07,0,0,0-84.13,0H151.88a42.07,42.07,0,0,0-84.13,0H53.88a10,10,0,0,1-10-10V225.91a10,10,0,0,1,10-10H291.2a10,10,0,0,1,9.24,6.15l15.91,38.22A10,10,0,0,1,307.12,274.12Z"/><rect class="cls-2" x="52.06" y="91.82" width="118.85" height="124.09"/><path class="cls-2" d="M170.91,139.11h99.58a20,20,0,0,1,20,20v56.8H170.91Z"/><path class="cls-2" d="M52.88,91.82H170.16a10,10,0,0,0,9.7-12.44l-7.05-28a10,10,0,0,0-9.69-7.56H59.87a10,10,0,0,0-9.7,7.58l-7,28A10,10,0,0,0,52.88,91.82Z"/><path class="cls-2" d="M225.6,139.11V69.65a10,10,0,0,1,10-10h15.24a10,10,0,0,1,10,10v69.47Z"/><path class="cls-2" d="M151.88,274.12a42.07,42.07,0,1,1-42.06-42.06A42.06,42.06,0,0,1,151.88,274.12Z"/><path class="cls-2" d="M290.5,274.12a42.07,42.07,0,1,1-42.07-42.06A42.07,42.07,0,0,1,290.5,274.12Z"/></g></g></svg>