<svg xmlns="http://www.w3.org/2000/svg" viewBox="0 0 360 360"><defs><style>.cls-1,.cls-2{fill:none;}.cls-2{stroke:#131a22;stroke-linecap:round;stroke-linejoin:round;stroke-width:13px;}</style></defs><g id="Layer_2" data-name="Layer 2"><g id="Layer_1-2" data-name="Layer 1"><path class="cls-1" d="M0,0V360H360V0Z"/><path class="cls-2" d="M224.45,329.54h-88.9a40,40,0,0,1-40-40v-7c0-64.3,2.83-128.06,31.79-185.47H207l32.47,42.38a119.13,119.13,0,0,1,24.94,69.24c0,1,0,2.09,0,3.13v77.69A40,40,0,0,1,224.45,329.54Z"/><path class="cls-2" d="M207.57,81.32v7.19A8.59,8.59,0,0,1,199,97.1H137.91a10,10,0,0,1-10-10V81.32a10,10,0,0,1,10-10h59.66A10,10,0,0,1,207.57,81.32Z"/><path class="cls-2" d="M136.85,71.31V50.46a20,20,0,0,1,20-20h21.79a20,20,0,0,1,20,20V71.31Z"/><path class="cls-2" d="M239.2,197.31v18.74a10,10,0,0,1-10,10h-25a10,10,0,0,1-10-10V136.47a23.69,23.69,0,0,1,.83-6.54c.87-3.08,4.65-4.48,7.76-.56l26.7,37.49a52.2,52.2,0,0,1,9.72,30.21Z"/></g></g></svg>