<svg xmlns="http://www.w3.org/2000/svg" viewBox="0 0 360 360"><defs><style>.cls-1,.cls-2{fill:none;}.cls-2{stroke:#131a22;stroke-linecap:round;stroke-linejoin:round;stroke-width:13px;}</style></defs><g id="Layer_2" data-name="Layer 2"><g id="Layer_1-2" data-name="Layer 1"><path class="cls-1" d="M0,0V360H360V0Z"/><path class="cls-2" d="M146.18,168.91l3.56,22.47h-94a10,10,0,0,1-10-10v-2.47a10,10,0,0,1,10-10Z"/><path class="cls-2" d="M314.3,178.91v2.47a10,10,0,0,1-10,10h-93l3.56-22.47H304.3A10,10,0,0,1,314.3,178.91Z"/><path class="cls-2" d="M302.12,191.38l-16.7,75.19A18.74,18.74,0,0,1,275.65,279a19.51,19.51,0,0,1-13.46,1.54l-14.33-3.34a109.42,109.42,0,0,0-49.92.07,80,80,0,0,1-35,.4,127.74,127.74,0,0,0-58.9,1.39l-4.69,1.23a19.67,19.67,0,0,1-17.68-3.75,18.21,18.21,0,0,1-6.09-10L58.9,191.38h90.84l1.16,7.25c.53,3.41,2.84,5.85,5.53,5.85H204.6c2.68,0,5-2.44,5.52-5.85l1.16-7.25Z"/><path class="cls-2" d="M301.65,168.91H58.42l16.7-75.19C77,85.09,85.22,78.91,94.71,78.91H265.35c9.49,0,17.68,6.18,19.58,14.81Z"/><path class="cls-2" d="M214.84,168.91l-3.56,22.47-1.16,7.25c-.53,3.41-2.84,5.85-5.52,5.85H156.43c-2.69,0-5-2.44-5.53-5.85l-1.16-7.25-3.56-22.47Z"/></g></g></svg>