<svg xmlns="http://www.w3.org/2000/svg" viewBox="0 0 66.03 158.42"><defs><style>.cls-1{fill:#c0d9f2;}.cls-2{fill:#fff;}.cls-3{fill:#a2d1e4;}.cls-4{fill:#9fbfdf;}.cls-5{fill:#2966a3;}.cls-6{fill:#084d91;}</style></defs><g id="Layer_2" data-name="Layer 2"><g id="ALCOOL"><path class="cls-1" d="M17.67,19.44H47.83c0,8.92,6.38,12.85,11.56,14.56,3.91,1.3,6.53,5.34,6.53,9.84V148.19c0,5.65-4.16,10.23-9.3,10.23H9.3c-5.14,0-9.3-4.58-9.3-10.23V43.68c0-4.44,2.54-8.45,6.38-9.83C11.44,32,17.67,28.05,17.67,19.44Z"/><path class="cls-2" d="M4.41,43.19v7a1.81,1.81,0,0,0,3.62,0v-7a1.81,1.81,0,0,0-3.62,0Z"/><path class="cls-2" d="M4.41,57.31V80a1.9,1.9,0,0,0,1.81,2A1.9,1.9,0,0,0,8,80V57.31a1.9,1.9,0,0,0-1.81-2A1.9,1.9,0,0,0,4.41,57.31Z"/><path class="cls-3" d="M17.66,20.12l30.18-.06L48,21.88a167.22,167.22,0,0,0-30.51,0"/><path class="cls-4" d="M66,45.41l-.11,2.65V148.19c0,5.65-4.16,10.23-9.3,10.23H9.3c-5.14,0-9.3-4.58-9.3-10.23,0,0,74.06,3,59.52-102.45a25.2,25.2,0,0,0-6.87-15.39,17,17,0,0,0,6.11,3.44C64,35.45,66,39.7,66,45.41Z"/><path class="cls-5" d="M17.88,0H47.52a2.84,2.84,0,0,1,2.84,2.84V20.12a0,0,0,0,1,0,0H15a0,0,0,0,1,0,0V2.83A2.83,2.83,0,0,1,17.88,0Z"/><path class="cls-6" d="M15.05,17.47l13.38-6.42a9.24,9.24,0,0,1,5.07-1H50.29v6.7l.07,3.36H15.05Z"/></g></g></svg>