<svg xmlns="http://www.w3.org/2000/svg" viewBox="0 0 360 360"><defs><style>.cls-1,.cls-2{fill:none;}.cls-2{stroke:#131a22;stroke-linecap:round;stroke-linejoin:round;stroke-width:13px;}</style></defs><g id="Layer_2" data-name="Layer 2"><g id="Layer_1-2" data-name="Layer 1"><path class="cls-1" d="M0,0V360H360V0Z"/><path class="cls-2" d="M201.94,53.08V80.6H158.06V53.08c0-5.88,4.49-10.66,10-10.66h23.88C197.46,42.42,201.94,47.2,201.94,53.08Z"/><path class="cls-2" d="M225.38,204.67v92.46c0,.41,0,.84,0,1.25-.73,13.39-13.48,22.23-25.49,18.24l-8-2.65a37.71,37.71,0,0,0-23.76,0l-8,2.65c-12,4-24.76-4.85-25.49-18.24,0-.41,0-.84,0-1.25V204.67a44.84,44.84,0,0,1,3.54-17.51L142.45,177c.15-.37.31-.76.45-1.14a22,22,0,0,0,0-14.24L141.34,157a45,45,0,0,1,4.7-38.19l16.63-26V80.6h34.66V92.79l16.64,26A45,45,0,0,1,218.66,157l-1.54,4.64a22.12,22.12,0,0,0,0,14.24c.14.38.3.77.45,1.14l4.29,10.16A44.84,44.84,0,0,1,225.38,204.67Z"/><line class="cls-2" x1="134.86" y1="200.07" x2="223.12" y2="200.07"/><line class="cls-2" x1="134.86" y1="276.87" x2="223.12" y2="276.87"/></g></g></svg>