<svg xmlns="http://www.w3.org/2000/svg" xmlns:xlink="http://www.w3.org/1999/xlink" viewBox="0 0 57.02 179.68"><defs><style>.cls-1{fill:none;}.cls-2{fill:#95d0ef;}.cls-3{fill:#81bae6;}.cls-4{clip-path:url(#clip-path);}.cls-5{fill:#2764ad;}.cls-6{fill:#085f9a;}.cls-7{fill:#fff;}</style><clipPath id="clip-path" transform="translate(0.04)"><path class="cls-1" d="M16.2,26.34c1,1.77.55,3.87,0,5.44C14.45,37.09,10.69,41.25,8,45,4.86,49.44.06,56.17.48,64a73.52,73.52,0,0,0,1.28,8.48c.8,4.26,1.48,6.58,1.79,8,.92,4.35-.86,8.84-3.3,17.65-.1.39-.19.71-.25.91v69.5s2.64,16.58,20.52,8.12c0,0,8.33,6.66,16.28,0,0,0,8.51,5.69,16,0,0,0,3.1-2,4.18-7.29V99.1c-.18-.74-.46-2-.83-3.56C53.9,86,53.48,84.44,53.52,82c0-2,.34-1.37,1.58-7.66s1.9-9.63,1.75-12.61c-.22-4.1-1.89-7.24-5.23-13.36-1.86-3.4-7.72-11.29-9.89-15,0-.06-.18-.31-.35-.68-1.06-2.24-1.53-5.6-.06-6.75.49-.39.71-.14,1.25-.58,1.11-.91,1.46-3,.64-3.92-.52-.59-1.12-.24-1.77-1s-.89-1.72-.41-2.21A1.3,1.3,0,0,1,42.11,18h-26a2.56,2.56,0,0,1,0,2.13,1.46,1.46,0,0,1-.17.24c-.59.67-1.4.52-1.86.78s-.81.92-.62,3a2,2,0,0,0,.82.9C14.82,25.43,15.83,25.71,16.2,26.34Z"/></clipPath></defs><g id="Layer_2" data-name="Layer 2"><g id="Layer_1-2" data-name="Layer 1"><g id="Layer_2-2" data-name="Layer 2"><g id="Layer_7" data-name="Layer 7"><path class="cls-2" d="M16.2,26.34c1,1.77.55,3.87,0,5.44C14.45,37.09,10.69,41.25,8,45,4.86,49.44.06,56.17.48,64a73.52,73.52,0,0,0,1.28,8.48c.8,4.26,1.48,6.58,1.79,8,.92,4.35-.86,8.84-3.3,17.65-.1.39-.19.71-.25.91v69.5s2.64,16.58,20.52,8.12c0,0,8.33,6.66,16.28,0,0,0,8.51,5.69,16,0,0,0,3.1-2,4.18-7.29V99.1c-.18-.74-.46-2-.83-3.56C53.9,86,53.48,84.44,53.52,82c0-2,.34-1.37,1.58-7.66s1.9-9.63,1.75-12.61c-.22-4.1-1.89-7.24-5.23-13.36-1.86-3.4-7.72-11.29-9.89-15,0-.06-.18-.31-.35-.68-1.06-2.24-1.53-5.6-.06-6.75.49-.39.71-.14,1.25-.58,1.11-.91,1.46-3,.64-3.92-.52-.59-1.12-.24-1.77-1s-.89-1.72-.41-2.21A1.3,1.3,0,0,1,42.11,18h-26a2.56,2.56,0,0,1,0,2.13,1.46,1.46,0,0,1-.17.24c-.59.67-1.4.52-1.86.78s-.81.92-.62,3a2,2,0,0,0,.82.9C14.82,25.43,15.83,25.71,16.2,26.34Z" transform="translate(0.04)"/><path class="cls-1" d="M16.14,18.07H41.56a1.69,1.69,0,0,1,.55,0h-.55a.88.88,0,0,0-.53.25,1.44,1.44,0,0,0,0,1.52c1.64.11,2.47.2,2.47.2l-.77-7.43-27.09-.89L13.48,20s1-.09,2.84-.2A2.94,2.94,0,0,0,16.14,18.07Z" transform="translate(0.04)"/><path class="cls-2" d="M41.56,18.07h.55A1.69,1.69,0,0,0,41.56,18.07Z" transform="translate(0.04)"/><path class="cls-3" d="M41,18.32a.88.88,0,0,1,.53-.25H16.14a3,3,0,0,1,.18,1.77c2.61-.15,6.94-.33,12.63-.33s9.71.18,12.05.33A1.44,1.44,0,0,1,41,18.32Z" transform="translate(0.04)"/><g class="cls-4"><path class="cls-3" d="M20.52,176.72s8.33,6.66,16.28,0c0,0,8.51,5.69,16,0,0,0,3.1-2,4.18-7.29V99.1c-.18-.74-.46-2-.83-3.56C53.9,86,53.48,84.44,53.52,82c0-2,.34-1.37,1.58-7.66s1.9-9.63,1.75-12.61c-.22-4.1-1.89-7.24-5.23-13.36-1.86-3.4-7.72-11.29-9.89-15h0c2.19,4.25,14.65,29.34,9.42,39.39A41.23,41.23,0,0,0,47,95.22s6.13,69-18.57,69c-16,0-24.48-5.17-28.47-8.81V168.6S2.64,185.18,20.52,176.72Z" transform="translate(0.04)"/></g><path class="cls-5" d="M17.4,0H39.92s3.56.27,2.87,7.08V18.29H14.07V3.4A4.25,4.25,0,0,1,17.4,0Z" transform="translate(0.04)"/><path class="cls-6" d="M39.92,0c.41,11.66-2,16.39-3.87,18.29h6.74V7.08C43.48.27,39.92,0,39.92,0Z" transform="translate(0.04)"/><path class="cls-7" d="M7,70.16a1.5,1.5,0,0,1-1.39-.92c-1.72-4.18-.77-6.55-.66-6.8a1.5,1.5,0,1,1,2.76,1.18c0,.09-.51,1.61.68,4.47a1.52,1.52,0,0,1-.79,2h0A1.38,1.38,0,0,1,7,70.16Z" transform="translate(0.04)"/><path class="cls-7" d="M8.16,57.59a1.48,1.48,0,0,1-.51-.09,1.5,1.5,0,0,1-.9-1.92C9.49,48,17.46,38.3,17.79,37.89a1.5,1.5,0,1,1,2.31,1.92c-.08.09-8,9.65-10.53,16.78A1.5,1.5,0,0,1,8.16,57.59Z" transform="translate(0.04)"/></g></g></g></g></svg>