<svg xmlns="http://www.w3.org/2000/svg" viewBox="0 0 67.89 117.15"><defs><style>.cls-1{fill:#d8dadb;}.cls-2{fill:#c3c6c5;}.cls-3{fill:#989c9f;}.cls-4{fill:#c3cad8;}.cls-5{fill:#9fabb6;}.cls-6{fill:#fff;}</style></defs><g id="Layer_2" data-name="Layer 2"><g id="ALCOOL"><path class="cls-1" d="M8.15,18.58h0C8.15,8.32,15.5,0,24.57,0H44c9.06,0,16.41,8.32,16.41,18.58h0c0,2.63,0,4.77-4.21,4.77H12.36C8.15,23.35,8.15,21.21,8.15,18.58Z"/><path class="cls-2" d="M56.2,23.16c4.21,0,4.21-2.12,4.21-4.73h0C60.41,8.25,53.06,0,44,0l3.4,3.26A16.26,16.26,0,0,1,52,10.72c1.4,5.28-.41,10-6.43,12.44Z"/><path class="cls-3" d="M23.37,5a1.25,1.25,0,0,0,0-2.5,1.25,1.25,0,0,0,0,2.5Z"/><path class="cls-4" d="M7.6,33.08,0,109.74a6.75,6.75,0,0,0,6.71,7.41H61.15a6.74,6.74,0,0,0,6.71-7.39l-7.23-74.7a16,16,0,0,0-2.1-6.49c-1.63-2.82-2.24-2.82-4.92-2.82H14.43c-3.24,0-3.45,0-6.11,5A6.34,6.34,0,0,0,7.6,33.08Z"/><path class="cls-5" d="M57,117.15l5.48-.13c2.63-.77,5.71-4.53,5.43-7.26L62.55,54.87c-1.1-14.42-1.42-27.13-6.89-29l-11.78-.1s20.09,19.83.95,91.4Z"/><rect class="cls-5" x="4.45" y="22.82" width="59.23" height="2.94" rx="1.47"/><path class="cls-3" d="M37.34,5a1.25,1.25,0,0,0,0-2.5,1.25,1.25,0,0,0,0,2.5Z"/><path class="cls-3" d="M44,5a1.25,1.25,0,0,0,0-2.5A1.25,1.25,0,0,0,44,5Z"/><path class="cls-3" d="M30.46,5a1.25,1.25,0,0,0,0-2.5,1.25,1.25,0,0,0,0,2.5Z"/><path class="cls-6" d="M13,13.17a1.45,1.45,0,0,1-.5-.08,1.51,1.51,0,0,1-.92-1.91,11.35,11.35,0,0,1,4.86-5.86A1.5,1.5,0,0,1,17.87,8a8.53,8.53,0,0,0-3.46,4.22A1.48,1.48,0,0,1,13,13.17Z"/><path class="cls-6" d="M11.51,74.56l.62-7a1.82,1.82,0,0,0-3.62-.31l-.61,7a1.81,1.81,0,0,0,3.61.32Z"/><path class="cls-6" d="M12.74,60.5l2-22.65a1.9,1.9,0,0,0-1.63-2.13,1.91,1.91,0,0,0-2,1.82l-2,22.64a1.9,1.9,0,0,0,1.64,2.13A1.89,1.89,0,0,0,12.74,60.5Z"/></g></g></svg>